<?xml version="1.0" encoding="utf-8"?>
<!-- Generator: Adobe Illustrator 27.5.0, SVG Export Plug-In . SVG Version: 6.00 Build 0)  -->
<svg version="1.1" id="Слой_1" xmlns="http://www.w3.org/2000/svg" xmlns:xlink="http://www.w3.org/1999/xlink" x="0px" y="0px"
	 viewBox="0 0 3200 2000" style="enable-background:new 0 0 3200 2000;" xml:space="preserve">
<rect style="fill:#FFFFFF;" width="3200" height="2000"/>
<g>
	<path style="fill:#EBF3FA;" d="M463.61,1796.99c0,0-325.477-396.19-166.409-804.065
		c103.684-265.861,492.618-411.541,712.114-265.861c93.486,62.047,393.412,2.092,553.556-254.787
		C1874.068-26.9,2960.157,276.258,2762.43,1042.667c-95.686,370.888,291.211,384.369,94.072,755.108L463.61,1796.99z"/>
	<path style="fill:#CDE0FB;" d="M921.504,1274.139c-25.105-61.482,73.024-111.209,73.024-111.209s126.456,44.579,145.058,33.734
		c18.603-10.845-100.673-59.226-100.673-59.226c30.471-28.309,145.118-52.003,145.118-52.003s74.119,108.066,89.48,92.977
		s-70.511-92.34-70.511-92.34c39.136-14.762,97.22-0.307,97.22-0.307c83.345,32.132,37.782,137.495,37.782,137.495
		s26.494,36.897,80.391,61.271l0.002,0.001c0,0,10.866,3.802,25.899,12.887l-8.681,6.629c-2.486-1.786-4.986-3.439-7.501-4.938
		c-0.013-0.018-0.027-0.024-0.047-0.027c-0.036-0.021-0.073-0.042-0.109-0.063c-1.619-0.888-3.931-2.144-6.771-3.655
		c-0.004-0.002-0.007-0.004-0.011-0.006c-0.004-0.006-0.01-0.001-0.015-0.007c-6.616-3.167-11.336-5.634-14.584-7.537
		c-0.011-0.006-0.02-0.013-0.029-0.02c-20.391-10.229-48.053-22.722-59.09-21.346c0,0-0.071-2.085-1.182-5.4
		c0.377,1.723,0.77,3.518,1.182,5.4c9.455,43.188-60.789,105.228-108.667,128.345s-38.75-2.336-30.93-38.305
		c7.819-35.968,58.334-66.634,66.459-84.6c8.125-17.966-17.715-9.996-43.69,13.198c-25.975,23.195-18.701,61.327-60.037,99.612
		s-139.327-19.629-139.327-19.629c38.074-13.951,80.298-73.077,74.316-85.312c-5.982-12.235-86.897,51.232-102.065,57.774
		C988.349,1344.074,946.609,1335.621,921.504,1274.139z"/>
	<path style="fill:#CDE0FB;" d="M1561.725,512.515c36.641-50.805,125.455,2.849,125.455,2.849s27.523,123.438,45.495,132.901
		c17.971,9.463-2.925-110.132-2.925-110.132c37.872,10.232,114.114,90.107,114.114,90.107s-49.416,113.293-29.668,118.042
		c19.747,4.748,38.637-102.548,38.637-102.548c31.364,23.931,48.825,77.621,48.825,77.621c15.94,82.73-91.115,98.928-91.115,98.928
		s-16.278,39.632-8.846,94.928v0.002c0,0,2.389,10.592,2.632,27.158l-9.641-3.632c0.187-2.882,0.261-5.707,0.203-8.469
		c0.007-0.018,0.006-0.033-0.002-0.05c-0.001-0.04-0.003-0.08-0.004-0.12c-0.099-1.739-0.249-4.216-0.459-7.244
		c0-0.004-0.001-0.008-0.001-0.012c0.002-0.006-0.004-0.008-0.002-0.015c-0.772-6.875-1.158-11.884-1.258-15.434
		c-0.001-0.011,0-0.022,0.002-0.032c-2.007-21.424-5.835-49.796-12.45-57.937c0,0,1.632-1.099,3.729-3.644
		c-1.189,1.163-2.43,2.374-3.729,3.644c-29.825,29.144-114.556,3.95-156.973-22.8s-17.494-32.166,15.188-43.883
		c32.681-11.717,82.454,13.371,100.887,10.893c18.432-2.478-0.855-19.167-32.39-28.356c-31.535-9.19-58.405,15.684-109.688,1.746
		c-51.282-13.938-53.916-121.268-53.916-121.268c30.186,23.488,98.584,27.722,105.383,16.823
		c6.798-10.898-84.407-43.916-97.219-52.782C1539.179,600.935,1525.085,563.319,1561.725,512.515z"/>
	<path style="fill:#CDE0FB;" d="M2269.479,1684.838c90.66-18.638,72.097-170.829,72.097-170.829s-149.726-111.816-151.604-141.769
		c-1.878-29.951,146.68,70.604,146.68,70.604c9.133-57.242-52.386-208.36-52.386-208.36s-182.623-1.965-177.07-31.458
		c5.553-29.492,161.615,9.991,161.615,9.991c-13.274-56.763-75.076-112.796-75.076-112.796
		c-101.866-71.563-188.5,62.937-188.5,62.937s-63.274-2.047-133.311-45.535l-0.002-0.003c0,0-12.832-9.63-35.015-19.985
		l-0.939,15.193c3.998,1.492,7.851,3.104,11.538,4.853c0.029,0.001,0.049,0.013,0.067,0.033c0.054,0.025,0.105,0.052,0.159,0.077
		c2.283,1.186,5.531,2.888,9.486,5.004c0.004,0.003,0.01,0.005,0.015,0.008c0.01,0.001,0.009,0.011,0.019,0.012
		c8.8,5.202,15.318,8.754,20.042,11.037c0.015,0.008,0.029,0.014,0.045,0.018c27.663,15.672,63.59,38.006,70.559,51.851
		c0,0,2.47-1.535,7.17-2.821c-2.286,0.9-4.67,1.838-7.17,2.821c-57.337,22.563-74.663,152.022-64.281,225.39
		c10.383,73.366,32.77,43.05,68.346,6.09c35.575-36.961,31.886-119.237,46.383-142.583c14.496-23.345,25.317,12.754,18.616,60.823
		c-6.7,48.068-56.492,69.232-68.746,146.794s130.825,146.078,130.825,146.078c-13.389-54.905,22.306-149.665,41.111-152.232
		c18.806-2.566,8.106,140.356,12.301,162.993C2136.647,1661.708,2178.819,1703.475,2269.479,1684.838z"/>
	<path style="fill:#2E3552;" d="M3030.066,1801.408H240.284c-2.188,0-3.977-1.789-3.977-3.978v-3.729
		c0-2.188,1.79-3.977,3.977-3.977h2789.783c2.188,0,3.979,1.789,3.979,3.977v3.729
		C3034.045,1799.619,3032.254,1801.408,3030.066,1801.408z"/>
	<path style="fill:#F99746;" d="M2074.911,733.741H1195.44c-44.789,0-81.097,36.308-81.097,81.097v435.31
		c0,44.788,36.308,81.097,81.097,81.097h518.368l141.211,261.106v-261.106h219.893c44.788,0,81.097-36.309,81.097-81.097v-435.31
		C2156.008,770.049,2119.699,733.741,2074.911,733.741z"/>
	<path style="fill:#C0D8FB;" d="M2154.463,382.361h527.256c26.852,0,48.619,25.421,48.619,46.474v184.038
		c0,31.602-21.768,50.35-48.619,50.35h-310.77l-84.658,122.735V663.223h-131.828c-26.852,0-48.619-17.067-48.619-38.121V438.221
		C2105.844,402.809,2127.611,382.361,2154.463,382.361z"/>
	<path style="fill:#EBF3FA;" d="M1145.381,304.697H751.364c-20.066,0-36.333,16.267-36.333,36.332v195.025
		c0,20.066,16.267,36.333,36.333,36.333h232.237l63.265,116.979V572.388h98.515c20.066,0,36.333-16.267,36.333-36.333V341.029
		C1181.713,320.963,1165.447,304.697,1145.381,304.697z"/>
	<g>
		<path style="fill:#233862;" d="M1446.84,702.158c-13.495,23.487-30.468,32.553-30.468,32.553h-70.613
			C1345.759,734.711,1457.135,684.24,1446.84,702.158z"/>
		<g>
			<path style="fill:#FFB27D;" d="M1392.606,883.883c-1.84,2.109-2.074,4.465-1.164,6.982c0,0.01,0.007,0.025,0.018,0.035
				c1.685,4.654,7.249,9.852,13.711,15.042c0.826,0.667,1.561,1.273,2.201,1.834c0.168,0.147,0.336,0.294,0.494,0.443
				c0.13,0.114,0.255,0.234,0.38,0.343c6.027,5.556,3.759,6.829,14.586,18.102c12.346,12.846,20.847,13.077,23.265,11.907
				c2.046-0.998-2.111-7.811-6.716-15.468c-0.223-0.369-0.442-0.743-0.671-1.117c-0.613-1.018-1.223-2.051-1.832-3.075
				c-5.397-9.216-4.011-13.541-2.732-27.256c1.04-11.146,17.339-62.267,17.339-62.267l-23.66-4.076c0,0-7.125,40.708-14.976,46.977
				c-4.198,3.341-8.897,3.383-12.932,5.86c-0.285,0.172-0.565,0.349-0.839,0.53C1396.787,880.201,1394.452,881.769,1392.606,883.883
				z"/>
			<path style="fill:#233862;" d="M1392.606,883.883c-1.84,2.109-2.074,4.465-1.164,6.982c0,0.01,0.007,0.025,0.018,0.035
				c2.063,4.65,7.487,9.821,13.734,14.994c0.816,0.678,1.537,1.3,2.178,1.882c0.168,0.147,0.336,0.294,0.494,0.443
				c0.13,0.114,0.255,0.234,0.38,0.343c6.027,5.556,3.759,6.829,14.586,18.102c12.346,12.846,20.847,13.077,23.265,11.907
				c2.046-0.998-2.111-7.811-6.716-15.468c-2.404-0.88-13.567-5.416-22.008-16.216c-7.434-9.487-12.392-21.676-17.455-28.736
				c-0.285,0.172-0.565,0.349-0.839,0.53C1396.787,880.201,1394.452,881.769,1392.606,883.883z"/>
			<path style="fill:#FFB27D;" d="M1583.387,869.106c1.461,7.303,11.871,6.085,23.502,3.243c11.631-2.842,8.866,0.537,25.42-1.296
				c16.553-1.833,21.567-8.004,22.072-10.466c0.451-2.184-7.728-2.954-16.501-3.965c-1.103-0.124-2.211-0.26-3.319-0.397
				c-9.905-1.243-17.158-7.634-26.155-12.883c-8.522-4.972-21.24-25.229-21.24-25.229l-22.701,1.798c0,0,11.912,18.093,16.52,25.961
				c2.71,4.627,2.566,10.745,2.228,15.47C1583.037,863.909,1582.869,866.534,1583.387,869.106z"/>
			<path style="fill:#233862;" d="M1606.889,872.349c11.631-2.842,8.866,0.537,25.42-1.296c16.553-1.833,21.567-8.004,22.072-10.466
				c0.451-2.184-7.728-2.954-16.501-3.965l-0.081,0.168c0,0-9.928,7.039-23.706,7.369c-11.23,0.273-23.125-2.944-30.881-2.819
				c-0.175,2.568-0.343,5.193,0.175,7.766C1584.848,876.41,1595.258,875.191,1606.889,872.349z"/>
			<path style="fill:#233862;" d="M1496.391,723.951l-21.221,57.104l-27.706,74.561c0,0-7.519,0.726-14.719-1.345
				c-6.628-1.916-14.235-6.928-14.235-6.928s7.693-80.058,22.044-126.014c3.677-11.796,7.8-21.338,12.348-26.708
				C1475.15,668.327,1496.391,723.951,1496.391,723.951z"/>
			<path style="fill:#2B478B;" d="M1474.814,633.262c-13.903-4.485-53.556,1.273-93.388,9.071l-8.34-13.756l-86.037-6.719
				c0,0-28.391,62.96-12.848,103.077c2.285,5.896,7.939,8.383,15.677,8.508c0.003,0.003,0.006,0.007,0.009,0.011
				c0,0,51.339,1.253,67.967,1.253c42.787,0,90.553-29.412,96.732-30.647c10.114-2.023,14.159,18.205,24.273,39.444
				c10.114,21.239,95.07,94.059,95.07,94.059s13.057,0.13,18.451-1.893c5.8-2.175,7.923-5.001,7.923-5.001
				S1506.167,643.376,1474.814,633.262z"/>
			<path style="fill:#233862;" d="M1363.945,375.928c-6.449-3.839-12.735-4.395-16.542-4.272c-2.748,0.089-5.493-0.173-8.217-0.54
				c-32.603-4.381-52.225,42.993-53.379,57.348c-2.127,26.459-16.124,30.493-35.826,47.063
				c-39.503,33.226-27.919,71.834-6.318,86.18c12.96,8.608,35.805-0.001,35.805-0.001c0.323,0.225,62.477-34.745,93.114-51.614
				C1418.51,503.563,1382.397,386.914,1363.945,375.928z"/>
			<path style="fill:#FFB27D;" d="M1346.901,495.733c0.135,0.087-15.074,5.279-25.244,0.775
				c-9.567-4.228-16.815-19.968-16.673-19.977c4.353-0.201,9.13-4.006,12.81-28.973l1.854,0.664l31.16,11.212
				c0,0-2.258,9.998-3.718,19.518C1345.86,486.946,1345.2,494.603,1346.901,495.733z"/>
			<path style="fill:#ED975D;" d="M1350.808,459.436c0,0-2.258,9.998-3.718,19.518c-17.898-3.222-24.922-21.054-27.442-30.73
				L1350.808,459.436z"/>
			<path style="fill:#FFB27D;" d="M1355.448,469.36c0,0-42.633-5.722-38.661-32.217c3.972-26.495,1.145-45.077,28.533-42.543
				s31.148,13.434,31.973,22.6C1378.119,426.365,1366.64,470.165,1355.448,469.36z"/>
			<path style="fill:#233862;" d="M1375.74,402.677c0,0-27.292,23.519-45.855,25.415c-18.563,1.896-25.591-4.063-25.591-4.063
				s10.942-9.085,17.526-23.746c1.941-4.322,6.041-7.287,10.761-7.694C1345.836,391.444,1370.964,390.922,1375.74,402.677z"/>
			<path style="fill:#233862;" d="M1358.68,400.571c0,0,9.13,8.827,12.005,15.375c2.775,6.318,3.607,21.43,1.397,27.432
				c0,0,14.225-27.66,6.171-41.098C1369.714,388.03,1358.68,400.571,1358.68,400.571z"/>
			<path style="fill:#F9DDBF;" d="M1382.8,558.534c-1.289,86.298-0.354,68.265-9.794,76.454c-2.274,1.971-8.669,3.147-17.085,3.703
				c-26.462,1.756-72.979-2.604-74.748-7.494c-6.104-16.921-1.794-22.178-6.887-48.084c-0.531-2.755-1.188-5.737-1.959-8.985
				c-4.246-17.793-8.378-23.846,6.685-52.431c13.661-25.894,27.852-46.909,29.128-46.15c36.041,21.395,38.947,3.412,38.947,3.412
				S1383.432,516.44,1382.8,558.534z"/>
			<path style="fill:#2B478B;" d="M1475.169,781.055l-27.706,74.561c0,0-7.519,0.726-14.719-1.345
				c-6.628-1.916-14.235-6.928-14.235-6.928s7.693-80.058,22.044-126.014L1475.169,781.055z"/>
			<path style="fill:#F9DDBF;" d="M1347.09,478.954c0,0,37.084,6.287,41.439,22.254c4.354,15.967,29.981,109.834,29.981,109.834
				s-18.853,3.387-27.562-5.322c-8.709-8.709-30.305-80.803-30.305-80.803L1347.09,478.954z"/>
			<path style="fill:#F2CCAA;" d="M1355.921,638.691c-26.462,1.756-72.979-2.604-74.748-7.494
				c-6.104-16.921-1.794-22.178-6.887-48.084l12.763-35.94c0,0-2.11,40.022,9.692,50.548c11.791,10.526,48.324,20.32,54.062,29.116
				C1353.571,631.058,1355.391,635.292,1355.921,638.691z"/>
			<path style="fill:#FFB27D;" d="M1325.603,621.858c0,0,26.106-5.813,30.318-3.496c4.213,2.316,14.508,10.754,15.796,13.69
				c1.289,2.936-9.378-2.229-12.847-3.159c-2.247-0.603-8.162,1.453-11.09,2.429c-12.321,4.107-19.871,1.994-19.871,1.994
				L1325.603,621.858z"/>
			<path style="fill:#F9DDBF;" d="M1308.119,475.527c0,0-35.054,2.16-47.189,19.084c-17.082,23.825-50.968,125.362-31.548,138.904
				c21.871,15.25,99.539,3.989,99.539,3.989s2.585-12.081-1.011-17.925s-62.035-15.284-64.732-17.981
				c-2.697-2.697,33.714-52.595,33.714-60.686S1308.119,475.527,1308.119,475.527z"/>
			<path style="fill:#FFB27D;" d="M1357.185,625.628c0,0,5.471,7.056,7.264,7.898c1.793,0.843,2.952,0.632,2.952,0.632l-3.686-6.634
				L1357.185,625.628z"/>
			<path style="fill:#FFB27D;" d="M1355.921,618.362l15.904,7.723c0,0-0.676,1.107-2.635,1.017
				c-1.958-0.089-6.897-1.896-6.897-1.896L1355.921,618.362z"/>
		</g>
		<g>
			<g>
				<polygon style="fill:#F99746;" points="1364.448,644.335 1490.251,644.335 1528.095,550.228 1402.486,550.228 				"/>
				<polygon style="fill:#ED7D2B;" points="1491.726,640.669 1325.603,640.669 1325.603,644.335 1490.251,644.335 				"/>
			</g>
			<path style="fill:#FFFFFF;" d="M1458.494,597.282c0.949-3.308-0.964-5.99-4.272-5.99s-6.759,2.682-7.708,5.99
				s0.964,5.99,4.272,5.99S1457.545,600.59,1458.494,597.282z"/>
		</g>
	</g>
	<g>
		<g id="man_1_">
			<path style="fill:#FFB27D;" d="M1014.141,1008.809c-4.273,11.489-11.68,24.824-19.452,28.14
				c-8.812,3.759-12.488,9.07-12.488,9.07l-7.116-4.131l-8.499-4.939c0,0,0.201-0.943,0.617-2.481
				c0.409-1.53,1.047-3.662,1.909-6.024c0,0,2.607-3.351,1.01-7.563c-1.597-4.204-1.278-10.704,1.448-14.671
				c2.727-3.96,5.357-13.721,6.998-13.431c3.974,0.683-1.954,14.099-0.253,16.587c1.538,2.251,3.461,1.479,3.818,1.308
				c0.022-0.015,0.045-0.023,0.067-0.037c11.15-4.902,24.673-31.331,30.661-27.765
				C1015.097,984.208,1015.961,1003.914,1014.141,1008.809z"/>
			<g>
				<path style="fill:#2B478B;" d="M975.567,1024.809l13.967,9.816c0.987,0.693,2.361,0.453,3.055-0.533l35.781-50.913
					c0.693-0.986,0.453-2.361-0.533-3.055l-13.967-9.816c-0.987-0.693-2.361-0.454-3.055,0.533l-35.781,50.912
					C974.341,1022.741,974.581,1024.115,975.567,1024.809z"/>
				<path style="fill:#233862;" d="M988.355,1033.796l8.188,5.754c0.751,0.527,1.797,0.345,2.325-0.405l36.383-51.77
					c0.528-0.751,0.345-1.797-0.406-2.325l-8.188-5.754c-0.751-0.528-1.797-0.345-2.325,0.406l-36.383,51.77
					C987.421,1032.222,987.604,1033.268,988.355,1033.796z"/>
			</g>
			<path style="fill:#233862;" d="M775.188,951.752c0,0,71.073,123.964,96.857,146.773l94.543-70.486
				c0,0,13.719,4.207,19.726,17.979c0,0-57.411,116.969-113.938,121.928c-56.528,4.959-135.865-140.199-135.865-140.199
				L775.188,951.752z"/>
			<g>
				<path style="fill:#233862;" d="M614.352,1794.892h-41.065c-5.17-2.809-9.776-9.234-11.232-18.817
					c-2.006-13.229-16.833-20.443-20.042-31.267c-3.202-10.815,13.231-26.044,13.231-26.044l2.748-3.544l2.86-3.677l27.255,6.418
					c0,0,0.676,6.492,1.085,14.761c0.297,5.965,0.453,12.858,0.119,18.905c-0.802,14.427,4.034,29.967,16.856,32.775
					C615.646,1786.475,615.222,1792.098,614.352,1794.892z"/>
				<path style="fill:#233862;" d="M852.676,1794.892h-93.912c-4.517-5.513-2.853-25.852-2.169-32.493
					c0.141-1.337,0.238-2.117,0.238-2.117s32.069-25.65,36.474-6.01c0.134,0.617,0.297,1.219,0.475,1.813
					c5.549,18.371,30.442,26.721,44.817,29.046C847.944,1786.646,851.398,1791.504,852.676,1794.892z"/>
				<path style="fill:#F99746;" d="M834.782,1270.684c0,0-4.869,60.755-10.593,133.785c-7.779,99.206-17.133,221.064-18.059,244.149
					c-1.599,40.086-8.02,104.207-8.02,104.207s-15.222,15.234-45.689,8.813c0,0-27.149-91.534-34.904-188.384
					c-0.12-1.587-0.24-3.187-0.36-4.785c-7.214-98.593-18.432-306.202-18.432-306.202L834.782,1270.684z"/>
				<path style="fill:#ED7D2B;" d="M834.782,1270.684c0,0-4.869,60.755-10.593,133.785l-106.672,168.786
					c-0.12-1.587-0.24-3.187-0.36-4.785c-7.214-98.593-18.432-306.202-18.432-306.202L834.782,1270.684z"/>
				<path style="fill:#F99746;" d="M812.545,1277.898c0,0-87.771,220.03-145.484,323.432
					c-57.713,103.402-75.748,132.259-75.748,132.259s-33.065-13.226-36.07-22.243c0,0,22.069-199.623,60.719-248.285
					c21.839-27.497,47.493-110.016,48.695-138.872c1.203-28.856,7.815-85.968,7.815-85.968L812.545,1277.898z"/>
			</g>
			<path style="fill:#FFB27D;" d="M790.695,957.141c-34.298,10.823-93.645-18.386-93.645-18.386s31.623-23.734,29.967-73.082
				l26.52,21.372l18.015,14.516c0,0-0.074,8.558-2.043,23.556c-0.52,3.945-1.167,8.342-1.983,13.148
				C782.249,946.347,790.695,957.141,790.695,957.141z"/>
			<path style="fill:#ED975D;" d="M771.552,901.56c0,0-0.074,8.558-2.043,23.556c-19.961-3.424-42.603-35.687-42.603-35.687
				c10.163-2.935,19.062-3.462,26.631-2.385L771.552,901.56z"/>
			<path style="fill:#FFB27D;" d="M782.041,900.748c0,0-56.654,9.412-61.972-25.959c-5.318-35.371-16.212-57.978,19.735-65.483
				c35.947-7.505,45.02,4.933,49.667,16.308C794.118,836.987,796.641,897.388,782.041,900.748z"/>
			<path style="fill:#2B478B;" d="M838.567,1275.744c-1.032,0.857-2.231,1.374-3.605,1.374c-12.88-0.175-50.439,6.979-82.219,3.716
				c-26.792-2.573-50.505-10.509-75.971-21.924c-3.381-1.517-11.165-5.67-10.99-9.45c0.114-4.139,0.525-10.142,1.042-17.701
				c1.802-26.285,4.944-71.496,1.881-123.654c-0.551-9.712-0.84-19.346-0.875-28.831c-0.263-70.69,13.755-132.867,41.921-153.911
				c2.406-1.724,17.176,5.495,30.747,12.188c12.539,6.187,25.077,6.869,36.925,4.471l11.847,10.474
				c14.429,13.396,30.231,31.604,37.1,59.254c5.845,23.528,9.275,65.957,11.165,109.925c0.857,19.924,1.549,40.022,1.724,59.088
				v0.683c0.166,1.891,0.166,3.955,0.166,5.846C840.116,1236.238,839.424,1275.054,838.567,1275.744z"/>
			<path style="fill:#233862;" d="M666.824,1231.759c1.802-26.285,4.944-71.496,1.881-123.654
				c-0.551-9.712-0.84-19.346-0.875-28.831c11.733-28.463,21.323-49.104,21.323-49.104h29.575
				C718.728,1030.17,740.411,1178.271,666.824,1231.759z"/>
			<g>
				<path style="fill:#233862;" d="M515.329,1399.607l126.134,17.975c16.416,2.339,31.761-9.179,34.1-25.595l7.789-54.661
					c2.339-16.416-9.178-31.762-25.594-34.101l-126.134-17.974c-16.416-2.34-31.761,9.178-34.1,25.594l-7.789,54.661
					C487.396,1381.923,498.913,1397.269,515.329,1399.607z"/>
				<path style="fill:#2B478B;" d="M664.882,1319.521v-0.007c-3.543-8.87-11.195-15.875-20.896-18.252h-0.007
					c-0.008,0-0.015,0-0.022-0.008c-0.951-0.23-1.917-0.424-2.912-0.564l-25.116-3.573l1.679-11.797
					c0.379-2.629-0.297-5.259-1.902-7.398c-1.604-2.132-3.944-3.521-6.574-3.893l-6.552-0.937l-26.372-3.759l-4.754-0.676
					c-5.445-0.772-10.519,3.023-11.292,8.477l-1.679,11.796l-43.353-6.181c-16.477-2.347-31.876,9.212-34.231,25.688l-7.874,55.298
					c-2.347,16.477,9.211,31.876,25.688,34.224l125.907,17.947c2.221,0.319,4.42,0.379,6.566,0.208h0.008c0.007,0,0.007,0,0.015,0
					c3.447-0.26,6.76-1.121,9.828-2.48c9.256-4.086,16.283-12.718,17.814-23.423l7.881-55.291
					C667.497,1329.528,666.776,1324.262,664.882,1319.521z M566.356,1278.019c0.238-1.649,1.531-2.897,3.098-3.149
					c0.364-0.06,0.735-0.067,1.122-0.016l5.601,0.795l20.755,2.964l11.314,1.612c2.035,0.29,3.454,2.184,3.164,4.212l-1.679,11.797
					l-45.054-6.426L566.356,1278.019z"/>
			</g>
			<path style="fill:#FFB27D;" d="M611.246,1236.848c0,0-6.625,8.824-6.887,12.35c-1.78,23.896,9.138,27.201-19.131,40.475
				c0,0-12.069,4.603-12.274-4.765c-0.205-9.367,8.375-9.522,6.806-22.64c-1.81-15.131-1.628-15.271,8.303-23.173l6.576-10.868
				L611.246,1236.848z"/>
			<path style="fill:#2B478B;" d="M594.401,1243.611c10.649,2.076,22.194,1.235,22.194,1.235s31.617-97.671,35.686-106.593
				c4.07-8.922,93.914-114.524,93.914-114.524l-37.428-93.665c0,0-97.176,162.321-107.043,185.128
				c-16.305,37.69-21.965,122.193-21.965,122.193S586.036,1241.98,594.401,1243.611z"/>
			<path style="fill:#2B478B;" d="M720.023,871.384c0,0,5.813-0.972,4.876-8.979c-0.938-8.008-0.926-18.475,5.585-16.524
				c6.511,1.951,6.835,7.163,9.51,4.12c2.676-3.044,2.724-15.869,22.096-16.762c19.372-0.893,27.245,5.85,36.254,1.89
				c9.008-3.961,9.484-17.596,9.484-17.596s-2.563,4.869-6.433,6.418c0,0,15.03-20.557-2.371-34.653
				c-17.4-14.096-35.143-4.868-45.214-4.258c-22.187,1.343-36.519,2.674-43.766,17.253
				C702.795,816.871,705.786,857.351,720.023,871.384z"/>
			<path style="fill:#FFB27D;" d="M600.797,1247.356c0,0,6.379,6.649,6.781,9.415c1.293,8.88,4.258,12.716,2.772,13.682
				c-3.089,2.008-7.178-4.566-9.131-10.466C599.266,1254.088,600.797,1247.356,600.797,1247.356z"/>
		</g>
	</g>
	<g>
		<g>
			<g>
				<g>
					<path style="fill:#FFB27D;" d="M2263.831,1063.115c-0.003-0.606,8.883-18.976,6.057-20.389
						c-2.825-1.413-7.89-1.199-8.478,2.019C2260.82,1047.963,2263.831,1063.115,2263.831,1063.115z"/>
					<path style="fill:#233862;" d="M2396.441,834.807c0,0,52.092-62.597,79.669-22.543c0,0,20.574,8.536,28.016,43.555
						c7.593,35.73-16.168,62.888-28.453,56.177c-7.88-4.304-13.844,9.484-13.844,9.484L2396.441,834.807z"/>
					<path style="fill:#FFB27D;" d="M2331.834,1167.907c-41.414-15.258-81.302-86.128-81.302-86.128l13.062-9.143
						c10.878,15.913,59.818,46.467,59.818,46.467c1.117-13.409,2.739-25.577,4.741-36.597
						c13.587-74.899,44.668-97.086,53.011-101.796c1.348-0.765,2.105-1.064,2.105-1.064s-0.027,0.551-0.092,1.595
						c-0.12,2.254-0.385,6.796-0.82,13.021C2379.122,1040.634,2366.438,1180.666,2331.834,1167.907z"/>
					<path style="fill:#233862;" d="M2470.42,805.916c0,0,7.004-28.015,48.151-19.261c0,0-19.698-2.48-25.097,5.107
						c0,0,15.612-7.15,25.389-1.167c9.776,5.982,11.381,26.119,9.922,32.247c-1.459,6.128-12.256,24.368-19.406,24.368
						c-7.149,0-15.613-6.275-15.613-6.275L2470.42,805.916z"/>
					<path style="fill:#FFB27D;" d="M2531.992,1244.385c-20.459-45.884-30.248-58.858-30.589-73.295
						c-0.271-11.417,5.358-23.735,16.293-53.939c2.573-7.117,4.351-14.437,5.445-21.834c8.647-58.229-25.024-121.177-45.952-125.465
						c-5.823-1.539-15.694-22.571-15.572-56.46l-2.621,0.516l-44.068,8.726c0,0,1.003,13.869,1.033,26.933
						c0.029,10.888-0.628,21.207-3.094,22.506c-3.174,0.287-5.045,0.476-5.045,0.476s-36.743,51.029-39.834,98.489
						s29.425,68.078-0.245,162.919C2337.451,1330.821,2543.295,1269.738,2531.992,1244.385z"/>
					<path style="fill:#E8945B;" d="M2414.928,922.634c0,0,1.003,13.869,1.033,26.933c24.659-0.695,37.693-23.19,43.035-35.659
						L2414.928,922.634z"/>
					<path style="fill:#233862;" d="M2463.547,909.11c0,0,12.923-20.419,16.025-37.879c2.214-12.465-4.135-58.67-50.566-52.016
						c0,0-13.485,1.329-26.161,9.891c-10.081,6.809-24.63,21.508-8.362,61.827l4.225,13.62L2463.547,909.11z"/>
					<path style="fill:#FFB27D;" d="M2406.692,935.005c0,0,58.345,0.962,58.385-35.381c0.04-36.343,7.598-60.695-29.652-62.847
						c-37.249-2.151-44.503,11.709-47.467,23.837C2384.994,872.742,2391.517,933.818,2406.692,935.005z"/>
					<path style="fill:#233862;" d="M2408.852,835.888c0,0,15.975,42.638,40.491,48.942c24.516,6.304,35.149-0.264,35.149-0.264
						s-18.805-14.938-22.707-41.016C2461.785,843.55,2420.902,815.594,2408.852,835.888z"/>
					<path style="fill:#233862;" d="M2412.811,839.349c0,0-11.93,9.519-14.838,18.774c-2.908,9.255-4.217,28.307-9.77,27.659
						c0,0-12.035-28.981,1.49-45.375C2404.035,823.023,2412.811,839.349,2412.811,839.349z"/>
					<path style="fill:#163560;" d="M2480.332,1684.677c-14.679,58.392-36.776,103.158-36.776,103.158l-19.239-1.334
						c0,0,9.435-44.887,8.893-105.534c-0.381-42.399-5.624-92.51-22.378-140.354c-57.569-164.417-48.265-284.077-48.265-284.077
						l108.26,12.663l5.044,0.592c0.451,49.719,1.734,117.224,2.857,170.011c0.992,47.473,1.864,83.035,1.864,83.035
						C2501.406,1567.663,2493.847,1630.938,2480.332,1684.677z"/>
					<path style="fill:#FFB27D;" d="M2607.873,1293.121l-17.516,5.254c0,0-57.78-95.869-63.034-120.813
						c-1.714-8.122-5.915-24.374-10.817-42.581c-10.146-37.708-23.24-83.848-23.24-83.848l-4.312-18.678l-14.708-63.696
						c0,0,28.162,2.877,44.636,9.765c5.454,2.276,9.614,4.993,11.068,8.182c12.102,26.609,24.183,93.763,32.675,141.667
						c4.732,26.699,8.342,47.424,10.227,51.814C2578.105,1192.439,2594.156,1259.854,2607.873,1293.121z"/>
					<path style="fill:#1C468A;" d="M2542.442,1675.353c-6.226,66.433-33.634,109.391-33.634,109.391l-9.19,6.685
						c0,0-8.699-46.806-14.854-102.49c-5.866-52.927-13.906-108.933-23-126.026c-36.104-67.796-46.973-323.73-46.973-323.73
						l109.766-5.443c11.039,18.558,15.851,48.997,16.994,83.606c2.888,87.347-17.646,201.242-20.714,217.715
						c0,0.01,0,0.021-0.011,0.04c-0.24,1.273,0.131,2.526,0.723,3.68C2543.385,1582.011,2546.543,1631.469,2542.442,1675.353z"/>
					<path style="fill:#233862;" d="M2410.596,840.79c0,0,11.381,44.65,42.314,58.949c0,0-30.934-27.432-33.561-56.906
						C2416.724,813.358,2410.596,840.79,2410.596,840.79z"/>
					<path style="fill:#F99746;" d="M2545.751,1277.511c0.19,3.699-0.01,6.657-0.682,8.772c-2.336,7.35-10.356,10.697-29.747,8.692
						c-11.851-1.233-17.135-21.095-19.49-38.038c-7.119,24.242-17.084,37.848-29.968,40.705
						c-18.799,4.181-113.625,15.711-119.831-29.366c-6.828-49.579,13.615-137.366,14.738-184.699
						c-2.787-16.783-3.74-31.351-3.439-43.863c0.792-33.718,10.688-52.617,18.298-60.227c2.155-1.654,4.312-2.687,12.964-4.171
						c4.422-0.752,10.547-1.624,19.229-2.767c0,0,3.543-0.399,3.463-0.268c-1.604,2.867-23.082,35.389-21.408,43.751
						c1.754,8.753,77.922,0.872,83.176-3.94s13.564-41.688,13.564-41.688s26.971,2.948,40.165,12.543c0,0-0.05,0.06-0.141,0.17
						c1.595,1.143,2.787,2.356,3.47,3.649c14.076,26.799,28.133,94.435,38.018,142.68c-23.962,13.204-44.896,9.274-51.393,7.529
						C2525.229,1192.54,2544.488,1252.195,2545.751,1277.511z"/>
					<path style="fill:#FFB27D;" d="M2263.594,1072.637c0.006-1.803,1.51-27.863-3.129-33.339
						c-4.639-5.475-14.11-13.26-17.09-13.021c-2.979,0.24-14.631,15.721-11.128,27.584c3.503,11.864,18.285,27.918,18.285,27.918
						L2263.594,1072.637z"/>
					<g>
						<path style="fill:#F1A34F;" d="M2284.867,1040.756l-27.008,8.095c-0.896,0.269-1.84-0.24-2.108-1.136l-15.435-51.498
							c-0.269-0.896,0.24-1.84,1.137-2.109l27.006-8.095c0.896-0.269,1.841,0.24,2.109,1.136l15.436,51.498
							C2286.272,1039.543,2285.764,1040.487,2284.867,1040.756z"/>
						<path style="fill:#D86713;" d="M2277.85,1042.859l-24.497,7.342c-1.589,0.477-3.264-0.426-3.74-2.015l-14.683-48.987
							c-0.476-1.589,0.426-3.264,2.016-3.74l24.497-7.342c1.589-0.476,3.264,0.426,3.74,2.015l14.683,48.987
							C2280.341,1040.708,2279.439,1042.383,2277.85,1042.859z"/>
					</g>
					<path style="fill:#FFB27D;" d="M2542.442,1675.353c-6.226,66.433-33.634,109.391-33.634,109.391l-9.357,8.522
						c0,0-8.532-48.644-14.688-104.328C2491.25,1689.409,2519.844,1690.452,2542.442,1675.353z"/>
					<path style="fill:#D9935C;" d="M2480.332,1684.677c-14.679,58.392-36.776,103.158-36.776,103.158l-19.239-1.334
						c0,0,9.435-44.887,8.893-105.534C2439.736,1684.256,2453.211,1687.595,2480.332,1684.677z"/>
					<g>
						<path style="fill:#233862;" d="M2454.636,1803.968h-12.283c-4.114-0.647-7.152-1.838-11.372-2.39
							c-6.408-0.841-9.359,1.786-9.945,2.39c-0.079,0.079-0.114,0.123-0.114,0.123h-52.179c-1.313-1.874-0.053-6.216,1.182-9.411
							c0.832-2.172,2.645-3.817,4.885-4.466c5.533-1.602,16.442-3.028,26.432-12.072c5.621-5.078,27.14-18.675,27.14-18.675
							l0.114-0.025c0.473,0.008,2.723,0.7,12.511,8.965c5.06,4.264,13.684-6.023,13.684-6.023s1.619,1.339,2.827,3.834
							c0.973,1.97,1.682,4.676,1.121,8.011c-0.779,4.701,1.733,13.438,3.738,19.349c1.217,3.581,2.241,6.119,2.241,6.119
							S2465.203,1802.646,2454.636,1803.968z"/>
						<path style="fill:#466AA5;" d="M2457.516,1766.217c-2.933,2.066-9.122,6.138-13.229,6.672
							c-5.541,0.727-15.907-13.422-15.907-13.422l0.114-0.025c0.473,0.008,2.723,0.7,12.511,8.965
							c5.06,4.264,13.684-6.023,13.684-6.023S2456.308,1763.722,2457.516,1766.217z"/>
						<path style="fill:#466AA5;" d="M2454.636,1803.968h-12.283c-4.114-0.647-7.152-1.838-11.372-2.39
							c-6.408-0.841-9.359,1.786-9.945,2.39c-0.079,0.079-0.114,0.123-0.114,0.123h-52.179c-1.313-1.874-0.053-6.216,1.182-9.411
							c1.585-1.41,2.031,6.119,2.907,7.318c0.875,1.199,42.565,0.438,44.974-1.313c2.407-1.752,9.63-4.815,19.698-2.408
							c8.764,2.093,21.677-3.274,24.872-4.701c1.217,3.581,2.241,6.119,2.241,6.119S2465.203,1802.646,2454.636,1803.968z"/>
					</g>
					<g>
						<path style="fill:#233862;" d="M2520.184,1803.968H2507.9c-4.114-0.647-7.152-1.838-11.373-2.39
							c-6.408-0.841-9.358,1.786-9.945,2.39c-0.078,0.079-0.113,0.123-0.113,0.123h-52.179c-1.313-1.874-0.053-6.216,1.182-9.411
							c0.832-2.172,2.644-3.817,4.886-4.466c5.532-1.602,16.441-3.028,26.431-12.072c5.62-5.078,27.14-18.675,27.14-18.675
							l0.113-0.025c0.474,0.008,2.724,0.7,12.512,8.965c5.061,4.264,13.684-6.023,13.684-6.023s1.619,1.339,2.828,3.834
							c0.971,1.97,1.681,4.676,1.12,8.011c-0.779,4.701,1.733,13.438,3.738,19.349c1.217,3.581,2.241,6.119,2.241,6.119
							S2530.751,1802.646,2520.184,1803.968z"/>
						<path style="fill:#466AA5;" d="M2523.064,1766.217c-2.934,2.066-9.123,6.138-13.229,6.672
							c-5.543,0.727-15.908-13.422-15.908-13.422l0.113-0.025c0.474,0.008,2.724,0.7,12.512,8.965
							c5.061,4.264,13.684-6.023,13.684-6.023S2521.855,1763.722,2523.064,1766.217z"/>
						<path style="fill:#466AA5;" d="M2520.184,1803.968H2507.9c-4.114-0.647-7.152-1.838-11.373-2.39
							c-6.408-0.841-9.358,1.786-9.945,2.39c-0.078,0.079-0.113,0.123-0.113,0.123h-52.179c-1.313-1.874-0.053-6.216,1.182-9.411
							c1.585-1.41,2.031,6.119,2.907,7.318c0.875,1.199,42.565,0.438,44.973-1.313c2.408-1.752,9.631-4.815,19.699-2.408
							c8.764,2.093,21.677-3.274,24.872-4.701c1.217,3.581,2.241,6.119,2.241,6.119S2530.751,1802.646,2520.184,1803.968z"/>
					</g>
					<path style="fill:#EF7E29;" d="M2545.751,1277.511c-13.023-4.352-29.737-15.922-49.81-41.858
						c-53.137-68.679-4.511-149.389,2.006-150.893s18.789,52.216,18.789,52.216
						C2525.229,1192.54,2544.488,1252.195,2545.751,1277.511z"/>
					<path style="fill:#F99746;" d="M2378.89,977.945c0,0-36.388,18.31-48.509,92.205c0,0,11.918,16.336,28.705,21.155
						c2.398,0.688,4.896,1.142,7.473,1.279C2387.17,1093.684,2378.89,977.945,2378.89,977.945z"/>
					<path style="fill:#FFB27D;" d="M2240.588,1028.278c0,0,11.246-17.304,13.994-16.341c3.923,1.374-10.196,23.332-10.196,23.332
						s10.463-16.408,12.097-15.176c3.723,2.813-2.204,13.122-8.081,21.026c0,0,10.521-9.635,10.862-7.899
						c1.201,6.077-11.55,20.805-11.55,20.805l-7.126-16.278V1028.278z"/>
					<path style="fill:#FFB27D;" d="M2232.152,1044.345c0.543-2.117,3.289-43.439,4.464-39.519
						c1.175,3.92,3.972,25.587,3.972,25.587L2232.152,1044.345z"/>
				</g>
			</g>
			<path style="fill:#FFFFFF;" d="M2418.091,913.432c0,0-1.009,4.282-11.663,3.622c0,0-8.945-0.553-8.672-5.26
				C2397.756,911.794,2406.43,908.445,2418.091,913.432z"/>
		</g>
		<path style="fill:#FFB27D;" d="M2607.873,1293.121c0,0,21.132,14.048,24.361,19.969c3.229,5.922,10.766,27.723,10.766,27.723
			s-5.383,0.808-10.766-8.612c-5.383-9.421-23.147-8.613-29.068-13.727c-5.922-5.114-12.809-20.099-12.809-20.099L2607.873,1293.121
			z"/>
		<path style="fill:#FFB27D;" d="M2592.654,1303.009c0,0,3.514,16.541,7.82,21.386s10.228,12.919,12.65,10.766
			c2.422-2.152-2.691-20.186-2.691-20.186L2592.654,1303.009z"/>
		<path style="fill:#FFB27D;" d="M2629.273,1314.975c0.539,0.807,19.11,20.544,19.11,20.544s-6.729,3.049-8.613,0
			C2637.887,1332.469,2629.273,1314.975,2629.273,1314.975z"/>
	</g>
	<g>
		<path style="fill:#FFFFFF;" d="M1373.388,1146.404h-30.205v-77.549h-78.028v77.549h-30.325V971.889h30.325v72.635h78.028v-72.635
			h30.205V1146.404z"/>
		<path style="fill:#FFFFFF;" d="M1535.774,1068.496h-71.676v53.696h83.782v24.212h-114.106V971.889h113.268v24.451h-82.943v48.184
			h71.676V1068.496z"/>
		<path style="fill:#FFFFFF;" d="M1627.442,1122.192h79.228v24.212h-109.552V971.889h30.325V1122.192z"/>
		<path style="fill:#FFFFFF;" d="M1784.794,1122.192h79.228v24.212H1754.47V971.889h30.324V1122.192z"/>
		<path style="fill:#FFFFFF;" d="M2043.427,1063.701c0,13.265-1.737,25.151-5.214,35.658c-3.477,10.509-8.371,19.418-14.683,26.729
			c-6.313,7.312-13.903,12.927-22.773,16.841c-8.869,3.914-18.698,5.873-29.485,5.873c-10.709,0-20.496-1.959-29.366-5.873
			c-8.869-3.914-16.521-9.529-22.953-16.841c-6.433-7.311-11.427-16.22-14.981-26.729c-3.557-10.507-5.335-22.394-5.335-35.658
			v-8.869c0-13.264,1.778-25.171,5.335-35.719c3.555-10.548,8.51-19.496,14.862-26.849c6.353-7.35,13.964-12.984,22.833-16.9
			c8.869-3.914,18.656-5.873,29.366-5.873c10.787,0,20.634,1.959,29.546,5.873c8.908,3.916,16.54,9.549,22.893,16.9
			c6.353,7.353,11.266,16.301,14.742,26.849s5.214,22.455,5.214,35.719V1063.701z M2013.103,1054.592
			c0-9.748-0.94-18.357-2.816-25.83c-1.879-7.471-4.614-13.724-8.211-18.758c-3.595-5.034-8.011-8.849-13.243-11.446
			c-5.235-2.596-11.168-3.896-17.8-3.896c-6.473,0-12.306,1.3-17.499,3.896c-5.196,2.598-9.611,6.412-13.245,11.446
			c-3.637,5.034-6.433,11.287-8.391,18.758c-1.959,7.473-2.936,16.082-2.936,25.83v9.109c0,9.75,0.977,18.38,2.936,25.89
			c1.958,7.512,4.774,13.805,8.45,18.878c3.675,5.075,8.131,8.911,13.364,11.506c5.232,2.599,11.087,3.896,17.56,3.896
			c13.425,0,23.751-5.113,30.984-15.343c7.23-10.228,10.847-25.17,10.847-44.827V1054.592z"/>
	</g>
	<g>
		<g>
			<path style="fill:#FFFFFF;" d="M1553.143,1661.987h-338.586c-10.394,0-18.897-8.504-18.897-18.897v-129.152
				c0-10.394,8.503-18.897,18.897-18.897h338.586c10.394,0,18.897,8.504,18.897,18.897v129.152
				C1572.04,1653.483,1563.536,1661.987,1553.143,1661.987z"/>
			<polygon style="fill:#FFFFFF;" points="1564.132,1506.864 1644.308,1453.62 1564.132,1621.174 			"/>
		</g>
		<g>
			<path style="fill:#FFA561;" d="M1309.045,1610.329h-11.965v-30.721h-30.912v30.721h-12.013v-69.134h12.013v28.774h30.912v-28.774
				h11.965V1610.329z"/>
			<path style="fill:#FFA561;" d="M1362.548,1610.329c-0.317-0.601-0.578-1.313-0.783-2.136c-0.207-0.823-0.388-1.71-0.546-2.66
				c-0.759,0.793-1.607,1.537-2.54,2.231c-0.935,0.697-1.963,1.306-3.087,1.829c-1.124,0.521-2.343,0.933-3.656,1.234
				c-1.314,0.3-2.715,0.45-4.203,0.45c-2.564,0-4.922-0.388-7.075-1.163c-2.153-0.774-3.997-1.852-5.531-3.229
				c-1.536-1.377-2.738-2.998-3.609-4.867c-0.87-1.867-1.306-3.894-1.306-6.078c0-2.753,0.523-5.19,1.567-7.312
				c1.045-2.121,2.564-3.894,4.559-5.318c1.994-1.424,4.439-2.508,7.335-3.252s6.197-1.115,9.9-1.115h7.265v-3.372
				c0-2.659-0.744-4.787-2.231-6.387c-1.488-1.598-3.751-2.397-6.79-2.397c-1.361,0-2.596,0.183-3.704,0.547
				c-1.108,0.363-2.05,0.854-2.826,1.471c-0.775,0.617-1.376,1.354-1.804,2.208c-0.427,0.855-0.641,1.773-0.641,2.754h-11.539
				c0-2.024,0.499-3.979,1.496-5.864c0.998-1.882,2.414-3.561,4.25-5.032c1.835-1.473,4.06-2.651,6.671-3.537
				c2.611-0.887,5.532-1.331,8.76-1.331c2.88,0,5.539,0.373,7.978,1.117c2.437,0.744,4.542,1.852,6.315,3.323
				c1.772,1.472,3.149,3.308,4.13,5.508c0.981,2.201,1.473,4.771,1.473,7.716v22.791c0,4.623,0.648,8.31,1.946,11.064v0.807
				H1362.548z M1349.87,1602.02c1.33,0,2.571-0.174,3.727-0.521c1.155-0.349,2.2-0.808,3.134-1.378
				c0.934-0.569,1.749-1.227,2.445-1.971c0.696-0.743,1.25-1.495,1.662-2.255v-9.687h-6.22c-4.273,0-7.487,0.744-9.639,2.231
				c-2.153,1.488-3.229,3.594-3.229,6.315c0,1.045,0.173,2.011,0.522,2.896c0.348,0.887,0.871,1.654,1.567,2.303
				c0.696,0.649,1.543,1.156,2.54,1.521C1347.377,1601.838,1348.54,1602.02,1349.87,1602.02z"/>
			<path style="fill:#FFA561;" d="M1406.459,1610.329h-11.538v-72.932h11.538V1610.329z"/>
			<path style="fill:#FFA561;" d="M1441.017,1610.329h-11.538v-72.932h11.538V1610.329z"/>
			<path style="fill:#FFA561;" d="M1461.14,1584.167c0-3.735,0.546-7.194,1.639-10.376c1.091-3.182,2.659-5.941,4.701-8.285
				c2.041-2.343,4.534-4.178,7.478-5.508c2.944-1.33,6.283-1.995,10.019-1.995c3.767,0,7.139,0.665,10.114,1.995
				s5.485,3.165,7.526,5.508c2.042,2.344,3.601,5.104,4.677,8.285c1.076,3.182,1.614,6.641,1.614,10.376v0.997
				c0,3.735-0.539,7.201-1.614,10.398c-1.077,3.198-2.635,5.959-4.677,8.285c-2.041,2.327-4.542,4.147-7.502,5.461
				c-2.96,1.313-6.308,1.97-10.042,1.97c-3.767,0-7.131-0.656-10.09-1.97c-2.96-1.313-5.46-3.134-7.501-5.461
				c-2.042-2.326-3.609-5.087-4.701-8.285c-1.092-3.197-1.639-6.663-1.639-10.398V1584.167z M1472.678,1585.164
				c0,2.311,0.237,4.494,0.713,6.552c0.474,2.059,1.218,3.854,2.231,5.39c1.013,1.535,2.303,2.746,3.87,3.632
				c1.567,0.888,3.427,1.329,5.58,1.329c2.12,0,3.965-0.441,5.531-1.329c1.567-0.886,2.849-2.097,3.846-3.632
				s1.741-3.331,2.232-5.39c0.491-2.058,0.736-4.241,0.736-6.552v-0.997c0-2.279-0.246-4.44-0.736-6.481
				c-0.491-2.041-1.243-3.83-2.255-5.366c-1.014-1.534-2.303-2.761-3.87-3.679c-1.566-0.919-3.427-1.378-5.579-1.378
				c-2.153,0-3.997,0.459-5.531,1.378c-1.536,0.918-2.81,2.145-3.823,3.679c-1.013,1.536-1.757,3.325-2.231,5.366
				c-0.476,2.041-0.713,4.202-0.713,6.481V1585.164z"/>
		</g>
	</g>
	<g>
		<path style="fill:#2B478B;" d="M2193.5,550.976v-64.608h22.142c3.49,0,6.627,0.348,9.407,1.043
			c2.781,0.695,5.133,1.752,7.056,3.172c1.923,1.42,3.395,3.232,4.415,5.436c1.021,2.204,1.531,4.814,1.531,7.832
			c0,2.958-0.799,5.621-2.396,7.987c-1.598,2.367-3.935,4.201-7.011,5.502c1.864,0.503,3.483,1.235,4.858,2.196
			c1.375,0.962,2.515,2.093,3.417,3.394c0.902,1.302,1.575,2.737,2.019,4.305c0.444,1.568,0.666,3.194,0.666,4.881
			c0,3.106-0.51,5.835-1.531,8.187c-1.02,2.352-2.5,4.32-4.437,5.902c-1.938,1.582-4.29,2.773-7.056,3.571
			c-2.766,0.799-5.895,1.198-9.385,1.198H2193.5z M2204.727,513.569h11.005c3.489,0,6.219-0.792,8.187-2.374
			c1.967-1.582,2.95-3.823,2.95-6.723c0-3.195-0.909-5.502-2.729-6.922c-1.819-1.42-4.652-2.13-8.498-2.13h-10.915V513.569z
			 M2204.727,521.822v20.19h12.469c1.834,0,3.453-0.236,4.858-0.71c1.405-0.474,2.581-1.146,3.528-2.019
			c0.946-0.872,1.656-1.915,2.129-3.128c0.473-1.213,0.711-2.559,0.711-4.038c0-3.195-0.844-5.709-2.529-7.543
			c-1.688-1.834-4.423-2.751-8.21-2.751H2204.727z"/>
		<path style="fill:#2B478B;" d="M2311.48,520.358c0,4.911-0.644,9.311-1.932,13.201c-1.286,3.891-3.099,7.189-5.436,9.896
			c-2.336,2.706-5.146,4.785-8.43,6.234c-3.284,1.449-6.923,2.174-10.916,2.174c-3.965,0-7.588-0.726-10.871-2.174
			c-3.284-1.449-6.117-3.528-8.499-6.234c-2.381-2.707-4.229-6.005-5.546-9.896c-1.317-3.89-1.975-8.29-1.975-13.201v-3.284
			c0-4.91,0.657-9.318,1.975-13.223c1.316-3.905,3.15-7.218,5.502-9.94c2.352-2.721,5.17-4.807,8.453-6.256
			c3.283-1.449,6.907-2.174,10.872-2.174c3.993,0,7.639,0.725,10.938,2.174c3.298,1.45,6.124,3.535,8.476,6.256
			c2.352,2.722,4.171,6.035,5.457,9.94c1.288,3.905,1.932,8.313,1.932,13.223V520.358z M2300.254,516.986
			c0-3.609-0.349-6.796-1.043-9.563c-0.695-2.765-1.709-5.081-3.04-6.944c-1.331-1.863-2.966-3.276-4.903-4.238
			c-1.938-0.96-4.135-1.442-6.589-1.442c-2.396,0-4.556,0.482-6.479,1.442c-1.923,0.962-3.557,2.375-4.902,4.238
			c-1.347,1.864-2.382,4.179-3.107,6.944c-0.725,2.767-1.086,5.954-1.086,9.563v3.372c0,3.609,0.361,6.804,1.086,9.585
			c0.726,2.781,1.769,5.11,3.129,6.989c1.361,1.879,3.011,3.299,4.947,4.26c1.938,0.961,4.105,1.442,6.502,1.442
			c4.969,0,8.793-1.893,11.47-5.68c2.677-3.787,4.017-9.318,4.017-16.596V516.986z"/>
		<path style="fill:#2B478B;" d="M2383.001,550.976h-11.227l-28.798-45.838v45.838h-11.227v-64.608h11.227l28.887,46.016v-46.016
			h11.138V550.976z"/>
		<path style="fill:#2B478B;" d="M2431.804,486.368h11.183v45.306c0,3.195-0.525,6.05-1.575,8.565
			c-1.052,2.515-2.515,4.629-4.394,6.345s-4.104,3.025-6.678,3.927c-2.574,0.902-5.385,1.353-8.432,1.353
			c-3.077,0-5.909-0.385-8.498-1.154c-2.588-0.769-4.813-1.952-6.678-3.55c-1.863-1.598-3.32-3.609-4.371-6.035
			c-1.05-2.426-1.575-5.28-1.575-8.565h11.183c0,1.864,0.244,3.455,0.732,4.771c0.487,1.316,1.168,2.381,2.041,3.195
			c0.872,0.814,1.915,1.413,3.129,1.797c1.212,0.384,2.559,0.576,4.037,0.576c1.449,0,2.781-0.244,3.994-0.731
			c1.213-0.489,2.255-1.205,3.128-2.152c0.872-0.946,1.554-2.115,2.041-3.505c0.488-1.391,0.732-3.003,0.732-4.837V486.368z"/>
		<path style="fill:#2B478B;" d="M2516.459,520.358c0,4.911-0.643,9.311-1.93,13.201c-1.287,3.891-3.1,7.189-5.437,9.896
			c-2.337,2.706-5.146,4.785-8.431,6.234c-3.283,1.449-6.922,2.174-10.916,2.174c-3.964,0-7.588-0.726-10.871-2.174
			c-3.283-1.449-6.117-3.528-8.498-6.234c-2.381-2.707-4.229-6.005-5.546-9.896c-1.317-3.89-1.975-8.29-1.975-13.201v-3.284
			c0-4.91,0.657-9.318,1.975-13.223c1.316-3.905,3.15-7.218,5.502-9.94c2.353-2.721,5.17-4.807,8.453-6.256
			c3.283-1.449,6.906-2.174,10.872-2.174c3.993,0,7.639,0.725,10.938,2.174c3.299,1.45,6.123,3.535,8.476,6.256
			c2.352,2.722,4.171,6.035,5.458,9.94c1.287,3.905,1.93,8.313,1.93,13.223V520.358z M2505.232,516.986
			c0-3.609-0.348-6.796-1.042-9.563c-0.696-2.765-1.709-5.081-3.04-6.944c-1.331-1.863-2.967-3.276-4.902-4.238
			c-1.939-0.96-4.135-1.442-6.59-1.442c-2.396,0-4.557,0.482-6.479,1.442c-1.923,0.962-3.558,2.375-4.902,4.238
			c-1.347,1.864-2.382,4.179-3.106,6.944c-0.726,2.767-1.087,5.954-1.087,9.563v3.372c0,3.609,0.361,6.804,1.087,9.585
			c0.725,2.781,1.768,5.11,3.128,6.989c1.36,1.879,3.011,3.299,4.948,4.26c1.938,0.961,4.104,1.442,6.5,1.442
			c4.97,0,8.793-1.893,11.471-5.68c2.678-3.787,4.016-9.318,4.016-16.596V516.986z"/>
		<path style="fill:#2B478B;" d="M2583.987,486.368v43.22c0,3.698-0.63,6.938-1.886,9.718c-1.259,2.781-2.981,5.103-5.17,6.966
			c-2.189,1.864-4.748,3.262-7.676,4.193c-2.93,0.932-6.065,1.398-9.408,1.398c-3.461,0-6.664-0.466-9.606-1.398
			c-2.944-0.932-5.495-2.329-7.655-4.193c-2.159-1.863-3.846-4.185-5.058-6.966c-1.214-2.78-1.819-6.02-1.819-9.718v-43.22h11.182
			v43.22c0,2.308,0.303,4.298,0.91,5.968c0.605,1.672,1.471,3.055,2.596,4.149c1.124,1.095,2.484,1.901,4.083,2.418
			c1.597,0.518,3.387,0.776,5.368,0.776s3.778-0.258,5.392-0.776c1.612-0.517,2.973-1.324,4.082-2.418
			c1.11-1.094,1.968-2.478,2.573-4.149c0.606-1.67,0.91-3.661,0.91-5.968v-43.22H2583.987z"/>
		<path style="fill:#2B478B;" d="M2628.797,526.082h-12.514v24.894h-11.227v-64.608h22.719c3.697,0,6.996,0.422,9.896,1.265
			c2.899,0.843,5.347,2.086,7.344,3.728c1.997,1.642,3.513,3.676,4.548,6.102c1.035,2.426,1.554,5.236,1.554,8.431
			c0,4.32-1.043,7.936-3.129,10.849c-2.085,2.914-4.991,5.155-8.72,6.723l14.511,26.935v0.577h-12.024L2628.797,526.082z
			 M2616.283,517.074h11.536c2.012,0,3.772-0.266,5.281-0.798c1.509-0.533,2.766-1.272,3.771-2.219
			c1.006-0.946,1.76-2.07,2.263-3.372c0.504-1.301,0.755-2.736,0.755-4.304c0-1.657-0.237-3.158-0.71-4.504
			c-0.474-1.346-1.198-2.499-2.175-3.461c-0.976-0.961-2.226-1.701-3.749-2.219c-1.524-0.517-3.351-0.776-5.48-0.776h-11.492
			V517.074z"/>
	</g>
	<g>
		<path style="fill:#2B478B;" d="M832.23,415.526c-4.579,8.047-9.435,15.4-14.43,21.643c-1.249-1.942-4.161-5.549-5.965-7.492
			c13.042-15.539,25.528-41.899,33.436-67.566l11.516,3.469c-0.556,1.387-1.804,1.664-3.33,1.526
			c-3.746,11.099-8.186,22.337-13.18,32.881l4.023,1.11c-0.278,0.833-0.972,1.526-2.776,1.664v88.239h-9.294V415.526z
			 M927.266,418.856c1.11-5.133,2.498-12.902,3.747-20.395h-27.61v81.023c0,9.99-3.607,11.793-23.031,11.793
			c-0.554-2.775-1.942-6.798-3.468-9.574c3.468,0.14,6.798,0.14,9.434,0.14h5.551c1.803,0,2.358-0.556,2.358-2.359v-81.023h-22.338
			c-4.161,10.128-9.017,19.285-14.289,26.222c-1.665-1.665-4.856-4.439-7.077-5.689c9.989-12.903,18.175-34.685,22.892-56.467
			l11.516,3.052c-0.277,0.971-1.249,1.526-3.053,1.387c-1.803,7.631-4.023,15.4-6.659,22.753h61.323l4.856,0.138
			c0,2.359-3.33,20.534-6.244,30.523L927.266,418.856z M882.869,423.435c-0.417,0.971-1.388,1.526-3.052,1.526
			c-4.44,17.065-12.07,35.24-20.812,46.339c-1.803-1.527-5.133-3.607-7.354-4.718c8.463-10.544,15.679-28.441,19.979-46.2
			L882.869,423.435z M933.231,470.19c-2.636-13.042-10.683-33.02-19.008-47.865l8.186-2.914
			c8.74,14.845,16.926,34.408,19.701,47.449L933.231,470.19z"/>
		<path style="fill:#2B478B;" d="M1013.419,391.108l5.272,1.387l-0.833,1.943c-1.943,24.557-6.382,44.257-13.319,59.658
			c6.798,5.272,12.624,10.406,16.371,15.123l-5.689,7.63c-3.468-4.439-8.74-9.434-14.845-14.428
			c-7.075,12.902-16.371,22.337-27.47,28.996c-1.249-2.358-3.885-5.689-5.827-7.63c10.405-5.55,19.146-14.568,26.082-27.054
			c-5.133-3.885-10.544-7.492-15.816-10.683l-1.665,6.105l-7.908-4.163c3.468-12.209,7.77-29.829,11.793-47.726h-13.875v-8.741
			h15.817c2.219-10.405,4.161-20.395,5.826-29.274l11.377,1.387c-0.139,0.972-0.97,1.527-2.775,1.665
			c-1.525,7.908-3.468,16.926-5.549,26.222h21.366L1013.419,391.108z M988.445,400.266c-2.914,12.902-6.104,25.944-9.018,37.321
			c5.827,3.191,11.793,7.076,17.62,10.961c5.551-12.903,9.574-28.997,11.516-48.281H988.445z M1094.303,424.129v9.018h-33.436
			v45.923c0,10.683-4.163,12.348-28.719,12.071c-0.554-2.497-2.081-6.521-3.468-9.295c6.659,0.138,12.763,0.277,16.649,0.277
			c4.717,0,6.104,0,6.104-2.913v-46.062h-33.99v-9.018h33.99v-23.586l4.579,0.277c7.214-6.105,14.845-14.845,20.533-22.615h-53.414
			v-8.74h60.49l1.803-0.555l7.354,4.579c-0.416,0.693-1.387,1.11-2.219,1.387c-7.215,10.267-19.146,23.447-29.691,32.049v17.204
			H1094.303z"/>
	</g>
	<g>
		<g>
			<path style="fill:#C0D8FB;" d="M2725.632,958.253c-36.753,29.255-90.454,23.155-119.71-13.598
				c-29.255-36.753-23.155-90.454,13.598-119.709s90.455-23.156,119.71,13.597C2768.484,875.295,2762.385,928.998,2725.632,958.253z
				 M2627.416,834.865c-31.283,24.902-36.477,70.611-11.574,101.895c24.901,31.283,70.611,36.475,101.895,11.573
				c31.283-24.901,36.475-70.611,11.573-101.895C2704.408,815.155,2658.699,809.964,2627.416,834.865z"/>
		</g>
		<g>
			<path style="fill:#C0D8FB;" d="M2816.124,1071.936c-3.253,2.589-7.989,2.051-10.578-1.201l-88.208-110.815
				c-2.59-3.252-2.052-7.989,1.201-10.578c3.252-2.589,7.988-2.051,10.578,1.201l88.208,110.814
				C2819.914,1064.61,2819.377,1069.347,2816.124,1071.936z"/>
		</g>
	</g>
	<g>
		<g>
			<rect x="1421.197" y="1406.281" style="fill:#FFA561;" width="26.445" height="47.239"/>
			<polygon style="fill:#FFA561;" points="1405.9,1406.281 1461.14,1406.281 1434.42,1365.899 			"/>
		</g>
		<g>
			
				<rect x="1355.248" y="1365.899" transform="matrix(-1 -1.224647e-16 1.224647e-16 -1 2736.9414 2779.0381)" style="fill:#FFFFFF;" width="26.445" height="47.239"/>
			<polygon style="fill:#FFFFFF;" points="1396.99,1413.139 1341.75,1413.139 1368.471,1453.521 			"/>
		</g>
	</g>
	<g>
		<g>
			
				<rect x="1934.636" y="529.441" transform="matrix(-1.836970e-16 1 -1 -1.836970e-16 2494.0793 -1396.7292)" style="fill:#FFA561;" width="21.536" height="38.469"/>
			<polygon style="fill:#FFA561;" points="1964.639,525.45 1964.639,570.434 1997.523,548.675 			"/>
		</g>
		<g>
			
				<rect x="1967.521" y="475.736" transform="matrix(6.123234e-17 -1 1 6.123234e-17 1483.3191 2473.259)" style="fill:#CDE0FB;" width="21.536" height="38.469"/>
			<polygon style="fill:#CDE0FB;" points="1959.055,518.194 1959.055,473.211 1926.17,494.97 			"/>
		</g>
	</g>
</g>
</svg>
